<svg width="102" height="102" viewBox="0 0 102 102" fill="none" xmlns="http://www.w3.org/2000/svg">
<path d="M50.793 63.3071C57.7045 63.3071 63.3073 57.7042 63.3073 50.7927C63.3073 43.8812 57.7045 38.2783 50.793 38.2783C43.8814 38.2783 38.2786 43.8812 38.2786 50.7927C38.2786 57.7042 43.8814 63.3071 50.793 63.3071Z" stroke="#1FCCB7" stroke-width="10" stroke-linecap="round" stroke-linejoin="round"/>
<path d="M82.2718 63.5546C81.7056 64.8377 81.5366 66.2609 81.7868 67.6409C82.0371 69.0208 82.6949 70.2942 83.6756 71.2967L83.9308 71.552C84.7219 72.3421 85.3494 73.2804 85.7775 74.3133C86.2057 75.3461 86.4261 76.4532 86.4261 77.5713C86.4261 78.6893 86.2057 79.7964 85.7775 80.8292C85.3494 81.8621 84.7219 82.8004 83.9308 83.5905C83.1407 84.3815 82.2024 85.0091 81.1695 85.4372C80.1367 85.8654 79.0296 86.0858 77.9116 86.0858C76.7935 86.0858 75.6864 85.8654 74.6536 85.4372C73.6208 85.0091 72.6824 84.3815 71.8923 83.5905L71.6371 83.3353C70.6345 82.3546 69.3611 81.6967 67.9812 81.4465C66.6013 81.1963 65.178 81.3652 63.895 81.9315C62.6368 82.4707 61.5637 83.3661 60.8079 84.5074C60.0521 85.6487 59.6465 86.986 59.641 88.3549V89.0781C59.641 91.3345 58.7447 93.4985 57.1492 95.094C55.5536 96.6895 53.3897 97.5859 51.1332 97.5859C48.8768 97.5859 46.7128 96.6895 45.1173 95.094C43.5218 93.4985 42.6254 91.3345 42.6254 89.0781V88.6952C42.5925 87.2872 42.1367 85.9216 41.3174 84.7761C40.4981 83.6305 39.3531 82.758 38.0312 82.2718C36.7482 81.7056 35.3249 81.5366 33.945 81.7868C32.565 82.0371 31.2917 82.6949 30.2891 83.6756L30.0339 83.9308C29.2437 84.7219 28.3054 85.3494 27.2726 85.7775C26.2398 86.2057 25.1327 86.4261 24.0146 86.4261C22.8966 86.4261 21.7895 86.2057 20.7566 85.7775C19.7238 85.3494 18.7855 84.7219 17.9953 83.9308C17.2043 83.1407 16.5768 82.2024 16.1486 81.1695C15.7205 80.1367 15.5001 79.0296 15.5001 77.9116C15.5001 76.7935 15.7205 75.6864 16.1486 74.6536C16.5768 73.6208 17.2043 72.6824 17.9953 71.8923L18.2506 71.6371C19.2313 70.6345 19.8891 69.3611 20.1393 67.9812C20.3895 66.6013 20.2206 65.178 19.6544 63.895C19.1151 62.6368 18.2198 61.5637 17.0785 60.8079C15.9372 60.0521 14.5998 59.6465 13.231 59.641H12.5078C10.2514 59.641 8.0874 58.7447 6.49188 57.1492C4.89636 55.5536 4 53.3897 4 51.1332C4 48.8768 4.89636 46.7128 6.49188 45.1173C8.0874 43.5218 10.2514 42.6254 12.5078 42.6254H12.8907C14.2987 42.5925 15.6642 42.1367 16.8098 41.3174C17.9553 40.4981 18.8279 39.3531 19.3141 38.0312C19.8803 36.7482 20.0492 35.3249 19.799 33.945C19.5488 32.565 18.8909 31.2917 17.9103 30.2891L17.655 30.0339C16.864 29.2437 16.2365 28.3054 15.8083 27.2726C15.3802 26.2398 15.1598 25.1327 15.1598 24.0146C15.1598 22.8966 15.3802 21.7895 15.8083 20.7566C16.2365 19.7238 16.864 18.7855 17.655 17.9953C18.4452 17.2043 19.3835 16.5768 20.4163 16.1486C21.4492 15.7205 22.5562 15.5001 23.6743 15.5001C24.7924 15.5001 25.8995 15.7205 26.9323 16.1486C27.9651 16.5768 28.9034 17.2043 29.6936 17.9953L29.9488 18.2506C30.9514 19.2313 32.2247 19.8891 33.6047 20.1393C34.9846 20.3895 36.4079 20.2206 37.6909 19.6544H38.0312C39.2894 19.1151 40.3624 18.2198 41.1182 17.0785C41.8741 15.9372 42.2797 14.5998 42.2851 13.231V12.5078C42.2851 10.2514 43.1815 8.0874 44.777 6.49188C46.3725 4.89636 48.5365 4 50.7929 4C53.0493 4 55.2133 4.89636 56.8089 6.49188C58.4044 8.0874 59.3007 10.2514 59.3007 12.5078V12.8907C59.3062 14.2595 59.7118 15.5969 60.4676 16.7382C61.2234 17.8794 62.2965 18.7748 63.5546 19.3141C64.8377 19.8803 66.2609 20.0492 67.6409 19.799C69.0208 19.5488 70.2942 18.8909 71.2967 17.9103L71.552 17.655C72.3421 16.864 73.2804 16.2365 74.3133 15.8083C75.3461 15.3802 76.4532 15.1598 77.5713 15.1598C78.6893 15.1598 79.7964 15.3802 80.8292 15.8083C81.8621 16.2365 82.8004 16.864 83.5905 17.655C84.3815 18.4452 85.0091 19.3835 85.4372 20.4163C85.8654 21.4492 86.0858 22.5562 86.0858 23.6743C86.0858 24.7924 85.8654 25.8995 85.4372 26.9323C85.0091 27.9651 84.3815 28.9034 83.5905 29.6936L83.3353 29.9488C82.3546 30.9514 81.6967 32.2247 81.4465 33.6047C81.1963 34.9846 81.3652 36.4079 81.9315 37.6909V38.0312C82.4707 39.2894 83.3661 40.3624 84.5074 41.1182C85.6487 41.8741 86.986 42.2797 88.3549 42.2851H89.0781C91.3345 42.2851 93.4985 43.1815 95.094 44.777C96.6895 46.3725 97.5859 48.5365 97.5859 50.7929C97.5859 53.0493 96.6895 55.2133 95.094 56.8089C93.4985 58.4044 91.3345 59.3007 89.0781 59.3007H88.6952C87.3264 59.3062 85.989 59.7118 84.8477 60.4676C83.7064 61.2234 82.811 62.2965 82.2718 63.5546V63.5546Z" stroke="#1FCCB7" stroke-width="8" stroke-linecap="round" stroke-linejoin="round"/>
</svg>
